<?xml version="1.0" encoding="UTF-8" standalone="no"?>
<svg
   xmlns:dc="http://purl.org/dc/elements/1.1/"
   xmlns:cc="http://creativecommons.org/ns#"
   xmlns:rdf="http://www.w3.org/1999/02/22-rdf-syntax-ns#"
   xmlns:svg="http://www.w3.org/2000/svg"
   xmlns="http://www.w3.org/2000/svg"
   id="svg821"
   version="1.1"
   viewBox="0 0 210 210"
   height="210mm"
   width="210mm">
  <defs
     id="defs815" />
  <metadata
     id="metadata818">
    <rdf:RDF>
      <cc:Work
         rdf:about="">
        <dc:format>image/svg+xml</dc:format>
        <dc:type
           rdf:resource="http://purl.org/dc/dcmitype/StillImage" />
        <dc:title></dc:title>
      </cc:Work>
    </rdf:RDF>
  </metadata>
  <g
     transform="translate(0,-87)"
     id="layer1">
    <g
       id="text1370"
       style="font-style:normal;font-weight:normal;font-size:93.93541718px;line-height:1.25;font-family:sans-serif;letter-spacing:0px;word-spacing:0px;fill:#000000;fill-opacity:1;stroke:none;stroke-width:2.34838533"
       aria-label="C">
      <path
         id="path1448"
         style="font-style:normal;font-variant:normal;font-weight:normal;font-stretch:normal;font-size:175.34613037px;font-family:'Arial Black';-inkscape-font-specification:'Arial Black, ';fill:#000000;fill-opacity:1;stroke-width:2.34838533"
         d="m 133.0265,204.70988 33.99043,10.27418 q -3.42473,14.29825 -10.78789,23.88749 -7.36317,9.58924 -18.3223,14.46948 -10.87352,4.88024 -27.74031,4.88024 -20.462756,0 -33.476727,-5.90766 -12.928352,-5.99328 -22.346357,-20.97647 -9.418005,-14.98319 -9.418005,-38.35696 0,-31.16504 16.524318,-47.86059 16.609936,-16.78117 46.918791,-16.78117 23.71625,0 37.24393,9.58924 13.61329,9.58924 20.2059,29.45267 l -34.24729,7.62002 q -1.79799,-5.73642 -3.7672,-8.39059 -3.2535,-4.45214 -7.9625,-6.84945 -4.709,-2.39731 -10.53104,-2.39731 -13.185209,0 -20.205904,10.61666 -5.30833,7.87687 -5.30833,24.74366 0,20.89085 6.335749,28.68211 6.335749,7.70564 17.808595,7.70564 11.13037,0 16.78117,-6.25013 5.73642,-6.25013 8.30497,-18.15106 z" />
    </g>
  </g>
</svg>
